<?xml version="1.0" encoding="UTF-8"?>
<svg fill="currentColor" xmlns="http://www.w3.org/2000/svg" viewBox="0 0 1024 1024" preserveAspectRatio="xMidYMid meet">
  <title>Clean Up Circle icon</title>
  <path d="M 515.0 342.0 L 512.0 344.0 L 511.0 350.0 L 505.0 358.0 L 504.0 364.0 L 498.0 372.0 L 497.0 378.0 L 491.0 386.0 L 490.0 392.0 L 484.0 400.0 L 483.0 405.0 L 477.0 414.0 L 476.0 419.0 L 472.0 424.0 L 472.0 427.0 L 470.0 428.0 L 460.0 451.0 L 458.0 452.0 L 458.0 455.0 L 456.0 456.0 L 457.0 459.0 L 451.0 466.0 L 451.0 469.0 L 449.0 470.0 L 448.0 475.0 L 444.0 480.0 L 437.0 497.0 L 435.0 498.0 L 435.0 505.0 L 596.0 506.0 L 595.0 498.0 L 593.0 497.0 L 593.0 494.0 L 591.0 493.0 L 588.0 484.0 L 586.0 483.0 L 586.0 480.0 L 579.0 469.0 L 579.0 465.0 L 575.0 460.0 L 575.0 457.0 L 573.0 456.0 L 574.0 455.0 L 568.0 446.0 L 568.0 443.0 L 566.0 442.0 L 567.0 441.0 L 561.0 432.0 L 554.0 415.0 L 552.0 414.0 L 551.0 407.0 L 549.0 406.0 L 549.0 403.0 L 547.0 402.0 L 546.0 397.0 L 542.0 392.0 L 535.0 375.0 L 533.0 374.0 L 532.0 367.0 L 530.0 366.0 L 530.0 363.0 L 528.0 362.0 L 519.0 342.0 Z M 515.0 393.0 L 519.0 394.0 L 523.0 403.0 L 525.0 404.0 L 528.0 415.0 L 530.0 416.0 L 530.0 419.0 L 532.0 420.0 L 533.0 425.0 L 537.0 430.0 L 544.0 447.0 L 546.0 448.0 L 549.0 459.0 L 553.0 462.0 L 552.0 464.0 L 560.0 478.0 L 560.0 482.0 L 558.0 484.0 L 472.0 484.0 L 470.0 482.0 L 493.0 434.0 L 495.0 433.0 L 495.0 430.0 L 497.0 429.0 L 500.0 420.0 L 502.0 419.0 L 502.0 416.0 L 504.0 415.0 L 507.0 406.0 L 509.0 405.0 L 509.0 402.0 L 511.0 401.0 L 512.0 396.0 Z M 447.0 146.0 L 445.0 148.0 L 439.0 148.0 L 438.0 150.0 L 432.0 150.0 L 431.0 152.0 L 417.0 153.0 L 410.0 157.0 L 406.0 157.0 L 405.0 159.0 L 394.0 160.0 L 393.0 162.0 L 375.0 167.0 L 350.0 178.0 L 349.0 185.0 L 340.0 183.0 L 335.0 187.0 L 329.0 188.0 L 326.0 192.0 L 317.0 195.0 L 314.0 199.0 L 306.0 203.0 L 305.0 209.0 L 298.0 209.0 L 294.0 211.0 L 291.0 215.0 L 278.0 224.0 L 278.0 229.0 L 265.0 241.0 L 259.0 241.0 L 240.0 260.0 L 240.0 264.0 L 234.0 266.0 L 226.0 278.0 L 220.0 283.0 L 219.0 287.0 L 213.0 292.0 L 210.0 299.0 L 206.0 303.0 L 205.0 308.0 L 194.0 321.0 L 194.0 324.0 L 192.0 325.0 L 191.0 330.0 L 182.0 344.0 L 173.0 366.0 L 171.0 367.0 L 172.0 370.0 L 166.0 381.0 L 166.0 385.0 L 164.0 387.0 L 165.0 389.0 L 157.0 408.0 L 158.0 412.0 L 156.0 414.0 L 156.0 420.0 L 154.0 421.0 L 154.0 427.0 L 152.0 428.0 L 152.0 434.0 L 150.0 436.0 L 151.0 444.0 L 149.0 445.0 L 149.0 454.0 L 147.0 456.0 L 147.0 470.0 L 145.0 472.0 L 145.0 502.0 L 143.0 504.0 L 145.0 509.0 L 145.0 543.0 L 147.0 544.0 L 147.0 560.0 L 151.0 571.0 L 150.0 579.0 L 152.0 581.0 L 152.0 588.0 L 154.0 589.0 L 154.0 595.0 L 156.0 596.0 L 156.0 600.0 L 158.0 602.0 L 157.0 607.0 L 161.0 614.0 L 161.0 620.0 L 163.0 621.0 L 163.0 625.0 L 165.0 627.0 L 164.0 629.0 L 172.0 644.0 L 171.0 647.0 L 175.0 652.0 L 178.0 663.0 L 180.0 664.0 L 187.0 681.0 L 189.0 682.0 L 201.0 705.0 L 205.0 708.0 L 205.0 711.0 L 208.0 713.0 L 208.0 716.0 L 212.0 719.0 L 215.0 726.0 L 221.0 731.0 L 222.0 735.0 L 238.0 752.0 L 238.0 754.0 L 268.0 784.0 L 291.0 801.0 L 296.0 807.0 L 303.0 810.0 L 307.0 814.0 L 314.0 817.0 L 317.0 821.0 L 328.0 826.0 L 334.0 831.0 L 347.0 836.0 L 348.0 838.0 L 361.0 843.0 L 366.0 847.0 L 378.0 850.0 L 383.0 854.0 L 396.0 857.0 L 397.0 859.0 L 407.0 861.0 L 408.0 863.0 L 426.0 866.0 L 427.0 868.0 L 452.0 871.0 L 453.0 873.0 L 462.0 873.0 L 464.0 875.0 L 478.0 875.0 L 480.0 877.0 L 545.0 877.0 L 546.0 875.0 L 561.0 875.0 L 562.0 873.0 L 588.0 870.0 L 590.0 868.0 L 596.0 868.0 L 597.0 866.0 L 615.0 863.0 L 616.0 861.0 L 626.0 859.0 L 627.0 857.0 L 641.0 854.0 L 646.0 850.0 L 653.0 849.0 L 687.0 833.0 L 693.0 828.0 L 699.0 826.0 L 702.0 822.0 L 710.0 819.0 L 713.0 815.0 L 718.0 814.0 L 746.0 793.0 L 783.0 758.0 L 783.0 756.0 L 803.0 734.0 L 818.0 710.0 L 824.0 705.0 L 825.0 700.0 L 831.0 693.0 L 830.0 691.0 L 832.0 690.0 L 832.0 687.0 L 838.0 680.0 L 837.0 679.0 L 841.0 674.0 L 841.0 670.0 L 845.0 666.0 L 844.0 663.0 L 852.0 650.0 L 851.0 648.0 L 859.0 633.0 L 858.0 630.0 L 866.0 612.0 L 865.0 607.0 L 867.0 606.0 L 867.0 600.0 L 869.0 599.0 L 871.0 586.0 L 873.0 584.0 L 872.0 578.0 L 874.0 576.0 L 874.0 567.0 L 876.0 565.0 L 878.0 532.0 L 880.0 530.0 L 880.0 483.0 L 878.0 481.0 L 878.0 461.0 L 876.0 460.0 L 876.0 449.0 L 874.0 447.0 L 874.0 438.0 L 872.0 437.0 L 873.0 430.0 L 871.0 428.0 L 871.0 423.0 L 865.0 407.0 L 866.0 404.0 L 864.0 402.0 L 864.0 398.0 L 862.0 397.0 L 862.0 393.0 L 860.0 392.0 L 860.0 388.0 L 858.0 386.0 L 859.0 383.0 L 853.0 372.0 L 853.0 368.0 L 851.0 367.0 L 852.0 365.0 L 848.0 360.0 L 848.0 356.0 L 846.0 355.0 L 845.0 350.0 L 841.0 345.0 L 836.0 332.0 L 834.0 331.0 L 834.0 328.0 L 830.0 325.0 L 829.0 320.0 L 825.0 316.0 L 824.0 311.0 L 820.0 308.0 L 815.0 297.0 L 811.0 294.0 L 810.0 290.0 L 804.0 285.0 L 789.0 264.0 L 757.0 232.0 L 734.0 215.0 L 729.0 209.0 L 721.0 206.0 L 708.0 195.0 L 702.0 194.0 L 699.0 190.0 L 690.0 187.0 L 683.0 181.0 L 662.0 173.0 L 657.0 169.0 L 653.0 169.0 L 652.0 167.0 L 618.0 157.0 L 617.0 155.0 L 613.0 155.0 L 611.0 153.0 L 597.0 152.0 L 596.0 150.0 L 589.0 150.0 L 578.0 146.0 L 567.0 146.0 L 567.0 152.0 L 565.0 154.0 L 563.0 168.0 L 561.0 170.0 L 560.0 184.0 L 558.0 185.0 L 558.0 191.0 L 556.0 192.0 L 556.0 198.0 L 554.0 199.0 L 553.0 213.0 L 551.0 215.0 L 549.0 229.0 L 547.0 231.0 L 546.0 249.0 L 565.0 251.0 L 567.0 253.0 L 573.0 253.0 L 574.0 255.0 L 593.0 258.0 L 605.0 264.0 L 607.0 263.0 L 612.0 267.0 L 616.0 267.0 L 632.0 274.0 L 670.0 298.0 L 715.0 341.0 L 721.0 349.0 L 720.0 350.0 L 726.0 355.0 L 726.0 358.0 L 733.0 366.0 L 738.0 377.0 L 747.0 390.0 L 747.0 393.0 L 749.0 394.0 L 748.0 397.0 L 754.0 406.0 L 757.0 419.0 L 761.0 425.0 L 766.0 450.0 L 768.0 452.0 L 769.0 472.0 L 771.0 474.0 L 771.0 492.0 L 773.0 493.0 L 773.0 517.0 L 771.0 519.0 L 771.0 537.0 L 769.0 538.0 L 768.0 557.0 L 766.0 559.0 L 766.0 565.0 L 764.0 566.0 L 764.0 572.0 L 762.0 573.0 L 763.0 578.0 L 755.0 596.0 L 756.0 599.0 L 754.0 601.0 L 754.0 605.0 L 748.0 613.0 L 747.0 619.0 L 741.0 627.0 L 740.0 633.0 L 734.0 640.0 L 733.0 645.0 L 729.0 648.0 L 726.0 655.0 L 720.0 661.0 L 721.0 662.0 L 715.0 667.0 L 714.0 671.0 L 705.0 679.0 L 705.0 682.0 L 690.0 697.0 L 682.0 702.0 L 674.0 711.0 L 653.0 725.0 L 649.0 726.0 L 646.0 730.0 L 637.0 733.0 L 636.0 735.0 L 633.0 735.0 L 632.0 737.0 L 623.0 740.0 L 614.0 746.0 L 602.0 749.0 L 597.0 753.0 L 587.0 754.0 L 572.0 760.0 L 570.0 759.0 L 566.0 761.0 L 557.0 761.0 L 555.0 763.0 L 544.0 763.0 L 543.0 765.0 L 485.0 765.0 L 484.0 763.0 L 471.0 763.0 L 470.0 761.0 L 454.0 760.0 L 453.0 758.0 L 447.0 758.0 L 440.0 754.0 L 432.0 753.0 L 419.0 747.0 L 412.0 746.0 L 403.0 740.0 L 397.0 739.0 L 393.0 735.0 L 389.0 735.0 L 377.0 726.0 L 372.0 725.0 L 369.0 721.0 L 366.0 721.0 L 347.0 705.0 L 345.0 705.0 L 330.0 690.0 L 328.0 690.0 L 309.0 669.0 L 310.0 668.0 L 290.0 641.0 L 289.0 636.0 L 285.0 633.0 L 285.0 630.0 L 283.0 629.0 L 282.0 624.0 L 274.0 611.0 L 275.0 608.0 L 269.0 599.0 L 268.0 592.0 L 266.0 591.0 L 266.0 585.0 L 264.0 584.0 L 262.0 573.0 L 260.0 571.0 L 261.0 566.0 L 259.0 565.0 L 259.0 559.0 L 257.0 558.0 L 257.0 548.0 L 255.0 547.0 L 255.0 538.0 L 253.0 536.0 L 254.0 512.0 L 252.0 511.0 L 252.0 495.0 L 254.0 493.0 L 255.0 462.0 L 257.0 461.0 L 257.0 453.0 L 259.0 452.0 L 259.0 444.0 L 261.0 443.0 L 260.0 438.0 L 262.0 436.0 L 262.0 431.0 L 264.0 429.0 L 264.0 425.0 L 266.0 424.0 L 269.0 411.0 L 273.0 406.0 L 273.0 402.0 L 275.0 401.0 L 276.0 396.0 L 280.0 391.0 L 285.0 378.0 L 287.0 377.0 L 287.0 374.0 L 290.0 372.0 L 290.0 369.0 L 296.0 362.0 L 295.0 361.0 L 301.0 356.0 L 304.0 348.0 L 344.0 307.0 L 355.0 300.0 L 359.0 295.0 L 362.0 295.0 L 365.0 291.0 L 381.0 283.0 L 388.0 277.0 L 409.0 269.0 L 414.0 265.0 L 428.0 262.0 L 429.0 260.0 L 440.0 258.0 L 442.0 256.0 L 452.0 255.0 L 454.0 253.0 L 483.0 249.0 L 483.0 240.0 L 481.0 238.0 L 479.0 223.0 L 477.0 222.0 L 476.0 208.0 L 474.0 207.0 L 474.0 199.0 L 472.0 198.0 L 472.0 192.0 L 470.0 191.0 L 469.0 177.0 L 467.0 175.0 L 467.0 168.0 L 465.0 166.0 L 462.0 147.0 Z M 410.0 181.0 L 421.0 180.0 L 422.0 178.0 L 431.0 178.0 L 433.0 176.0 L 444.0 177.0 L 446.0 192.0 L 448.0 193.0 L 448.0 200.0 L 450.0 202.0 L 449.0 207.0 L 451.0 209.0 L 455.0 227.0 L 417.0 237.0 L 415.0 241.0 L 403.0 242.0 L 393.0 247.0 L 393.0 253.0 L 390.0 253.0 L 389.0 255.0 L 384.0 256.0 L 372.0 263.0 L 361.0 263.0 L 358.0 267.0 L 355.0 267.0 L 341.0 278.0 L 341.0 283.0 L 337.0 288.0 L 332.0 288.0 L 330.0 293.0 L 322.0 293.0 L 319.0 297.0 L 317.0 297.0 L 315.0 299.0 L 315.0 303.0 L 310.0 304.0 L 310.0 309.0 L 308.0 311.0 L 303.0 311.0 L 303.0 313.0 L 292.0 323.0 L 287.0 332.0 L 276.0 344.0 L 275.0 348.0 L 269.0 355.0 L 268.0 360.0 L 264.0 363.0 L 264.0 366.0 L 262.0 367.0 L 261.0 372.0 L 257.0 377.0 L 252.0 390.0 L 250.0 391.0 L 247.0 402.0 L 245.0 403.0 L 243.0 413.0 L 241.0 414.0 L 240.0 423.0 L 238.0 424.0 L 238.0 430.0 L 236.0 431.0 L 236.0 437.0 L 234.0 439.0 L 233.0 453.0 L 231.0 454.0 L 231.0 463.0 L 229.0 465.0 L 229.0 483.0 L 227.0 484.0 L 227.0 525.0 L 229.0 526.0 L 229.0 543.0 L 231.0 544.0 L 231.0 553.0 L 233.0 555.0 L 236.0 578.0 L 240.0 584.0 L 241.0 595.0 L 243.0 596.0 L 245.0 604.0 L 247.0 605.0 L 250.0 618.0 L 252.0 619.0 L 264.0 646.0 L 280.0 668.0 L 283.0 675.0 L 289.0 680.0 L 290.0 684.0 L 326.0 721.0 L 335.0 726.0 L 349.0 739.0 L 368.0 749.0 L 372.0 753.0 L 377.0 754.0 L 378.0 756.0 L 391.0 761.0 L 400.0 767.0 L 412.0 770.0 L 417.0 774.0 L 426.0 775.0 L 427.0 777.0 L 438.0 779.0 L 440.0 781.0 L 452.0 782.0 L 453.0 784.0 L 471.0 786.0 L 473.0 788.0 L 555.0 788.0 L 557.0 786.0 L 566.0 786.0 L 568.0 784.0 L 594.0 779.0 L 601.0 775.0 L 615.0 772.0 L 620.0 768.0 L 627.0 767.0 L 632.0 763.0 L 645.0 758.0 L 646.0 756.0 L 675.0 740.0 L 679.0 735.0 L 682.0 735.0 L 688.0 728.0 L 699.0 721.0 L 729.0 691.0 L 729.0 689.0 L 736.0 683.0 L 736.0 680.0 L 741.0 676.0 L 741.0 673.0 L 747.0 668.0 L 750.0 661.0 L 754.0 658.0 L 762.0 640.0 L 766.0 637.0 L 769.0 626.0 L 771.0 625.0 L 782.0 600.0 L 781.0 597.0 L 789.0 577.0 L 790.0 562.0 L 792.0 560.0 L 794.0 542.0 L 796.0 540.0 L 795.0 527.0 L 797.0 525.0 L 797.0 484.0 L 795.0 482.0 L 796.0 470.0 L 794.0 469.0 L 794.0 458.0 L 792.0 456.0 L 792.0 447.0 L 790.0 446.0 L 789.0 434.0 L 787.0 432.0 L 787.0 426.0 L 785.0 425.0 L 775.0 392.0 L 769.0 383.0 L 769.0 379.0 L 762.0 369.0 L 761.0 364.0 L 752.0 352.0 L 752.0 349.0 L 748.0 346.0 L 740.0 332.0 L 734.0 327.0 L 733.0 323.0 L 713.0 302.0 L 710.0 301.0 L 709.0 298.0 L 693.0 286.0 L 687.0 279.0 L 667.0 267.0 L 664.0 263.0 L 655.0 260.0 L 649.0 255.0 L 646.0 255.0 L 639.0 249.0 L 632.0 248.0 L 623.0 242.0 L 615.0 241.0 L 610.0 237.0 L 604.0 237.0 L 602.0 235.0 L 594.0 234.0 L 587.0 230.0 L 580.0 230.0 L 575.0 227.0 L 575.0 219.0 L 577.0 218.0 L 579.0 203.0 L 581.0 201.0 L 580.0 195.0 L 582.0 194.0 L 584.0 179.0 L 587.0 176.0 L 597.0 176.0 L 606.0 180.0 L 616.0 181.0 L 618.0 183.0 L 622.0 183.0 L 623.0 185.0 L 637.0 188.0 L 642.0 192.0 L 655.0 195.0 L 662.0 201.0 L 669.0 202.0 L 672.0 206.0 L 697.0 218.0 L 700.0 222.0 L 713.0 229.0 L 717.0 234.0 L 720.0 234.0 L 724.0 239.0 L 737.0 248.0 L 782.0 294.0 L 783.0 298.0 L 789.0 303.0 L 799.0 321.0 L 803.0 324.0 L 804.0 329.0 L 813.0 341.0 L 813.0 344.0 L 815.0 345.0 L 818.0 354.0 L 820.0 355.0 L 820.0 358.0 L 827.0 369.0 L 827.0 373.0 L 831.0 378.0 L 834.0 391.0 L 836.0 392.0 L 836.0 396.0 L 838.0 398.0 L 837.0 400.0 L 839.0 402.0 L 841.0 412.0 L 845.0 418.0 L 846.0 432.0 L 848.0 434.0 L 848.0 441.0 L 852.0 452.0 L 853.0 481.0 L 855.0 483.0 L 855.0 533.0 L 853.0 535.0 L 852.0 559.0 L 850.0 561.0 L 850.0 572.0 L 848.0 573.0 L 848.0 580.0 L 846.0 582.0 L 845.0 596.0 L 843.0 597.0 L 841.0 607.0 L 839.0 608.0 L 839.0 614.0 L 837.0 616.0 L 838.0 619.0 L 834.0 625.0 L 834.0 629.0 L 830.0 636.0 L 831.0 638.0 L 827.0 643.0 L 827.0 647.0 L 825.0 648.0 L 810.0 681.0 L 804.0 688.0 L 804.0 691.0 L 801.0 693.0 L 801.0 696.0 L 796.0 704.0 L 769.0 736.0 L 769.0 738.0 L 730.0 777.0 L 723.0 780.0 L 718.0 786.0 L 715.0 786.0 L 709.0 793.0 L 702.0 796.0 L 698.0 800.0 L 693.0 801.0 L 685.0 808.0 L 669.0 815.0 L 662.0 821.0 L 651.0 824.0 L 646.0 828.0 L 639.0 829.0 L 634.0 833.0 L 618.0 836.0 L 613.0 840.0 L 595.0 843.0 L 594.0 845.0 L 588.0 845.0 L 587.0 847.0 L 579.0 847.0 L 578.0 849.0 L 560.0 850.0 L 559.0 852.0 L 543.0 852.0 L 541.0 854.0 L 482.0 854.0 L 480.0 852.0 L 468.0 852.0 L 466.0 850.0 L 445.0 849.0 L 444.0 847.0 L 438.0 847.0 L 437.0 845.0 L 417.0 842.0 L 416.0 840.0 L 391.0 833.0 L 386.0 829.0 L 379.0 828.0 L 374.0 824.0 L 370.0 824.0 L 354.0 815.0 L 349.0 814.0 L 342.0 808.0 L 333.0 805.0 L 330.0 801.0 L 319.0 796.0 L 308.0 786.0 L 305.0 786.0 L 299.0 779.0 L 286.0 770.0 L 255.0 739.0 L 247.0 727.0 L 241.0 722.0 L 240.0 718.0 L 234.0 713.0 L 215.0 682.0 L 215.0 679.0 L 212.0 677.0 L 212.0 674.0 L 203.0 661.0 L 203.0 657.0 L 199.0 652.0 L 198.0 645.0 L 192.0 636.0 L 193.0 634.0 L 189.0 628.0 L 187.0 618.0 L 185.0 617.0 L 186.0 615.0 L 184.0 608.0 L 182.0 607.0 L 180.0 594.0 L 178.0 592.0 L 177.0 580.0 L 175.0 579.0 L 175.0 571.0 L 173.0 570.0 L 173.0 561.0 L 171.0 559.0 L 170.0 524.0 L 168.0 523.0 L 168.0 495.0 L 170.0 493.0 L 171.0 459.0 L 173.0 457.0 L 173.0 450.0 L 177.0 439.0 L 178.0 424.0 L 180.0 422.0 L 180.0 418.0 L 182.0 417.0 L 182.0 411.0 L 184.0 410.0 L 186.0 403.0 L 185.0 401.0 L 187.0 400.0 L 189.0 390.0 L 193.0 384.0 L 192.0 382.0 L 196.0 377.0 L 199.0 366.0 L 201.0 365.0 L 201.0 362.0 L 203.0 361.0 L 213.0 338.0 L 217.0 335.0 L 219.0 329.0 L 224.0 323.0 L 224.0 320.0 L 227.0 318.0 L 227.0 315.0 L 233.0 310.0 L 243.0 294.0 L 252.0 286.0 L 254.0 282.0 L 253.0 279.0 L 258.0 274.0 L 262.0 274.0 L 284.0 251.0 L 290.0 248.0 L 318.0 225.0 L 328.0 220.0 L 332.0 216.0 L 337.0 215.0 L 340.0 211.0 L 349.0 208.0 L 372.0 195.0 L 390.0 190.0 L 391.0 188.0 L 409.0 183.0 Z M 224.0 671.0 L 224.0 679.0 L 226.0 680.0 L 226.0 683.0 L 229.0 685.0 L 229.0 688.0 L 233.0 691.0 L 236.0 698.0 L 240.0 701.0 L 243.0 709.0 L 259.0 727.0 L 259.0 730.0 L 292.0 763.0 L 295.0 763.0 L 303.0 772.0 L 319.0 782.0 L 322.0 786.0 L 326.0 787.0 L 341.0 798.0 L 344.0 798.0 L 346.0 801.0 L 356.0 805.0 L 357.0 807.0 L 370.0 812.0 L 371.0 814.0 L 382.0 817.0 L 383.0 819.0 L 386.0 819.0 L 392.0 823.0 L 394.0 822.0 L 401.0 826.0 L 405.0 826.0 L 406.0 828.0 L 419.0 831.0 L 420.0 833.0 L 439.0 836.0 L 441.0 838.0 L 448.0 838.0 L 450.0 840.0 L 457.0 840.0 L 459.0 842.0 L 488.0 843.0 L 490.0 845.0 L 537.0 845.0 L 538.0 843.0 L 566.0 842.0 L 567.0 840.0 L 577.0 840.0 L 578.0 838.0 L 593.0 836.0 L 626.0 826.0 L 631.0 822.0 L 639.0 821.0 L 648.0 815.0 L 681.0 800.0 L 687.0 794.0 L 689.0 795.0 L 693.0 791.0 L 696.0 791.0 L 700.0 786.0 L 715.0 777.0 L 723.0 768.0 L 734.0 761.0 L 759.0 737.0 L 759.0 734.0 L 773.0 719.0 L 801.0 677.0 L 801.0 673.0 L 793.0 667.0 L 786.0 667.0 L 778.0 676.0 L 773.0 687.0 L 768.0 691.0 L 768.0 694.0 L 764.0 697.0 L 754.0 713.0 L 741.0 725.0 L 740.0 729.0 L 723.0 746.0 L 719.0 747.0 L 711.0 756.0 L 693.0 768.0 L 690.0 772.0 L 687.0 772.0 L 679.0 779.0 L 674.0 780.0 L 671.0 784.0 L 654.0 791.0 L 648.0 796.0 L 644.0 796.0 L 639.0 800.0 L 632.0 801.0 L 627.0 805.0 L 609.0 810.0 L 608.0 812.0 L 594.0 815.0 L 592.0 817.0 L 586.0 817.0 L 585.0 819.0 L 577.0 819.0 L 576.0 821.0 L 557.0 822.0 L 555.0 824.0 L 534.0 824.0 L 532.0 826.0 L 487.0 826.0 L 486.0 824.0 L 471.0 824.0 L 469.0 822.0 L 451.0 821.0 L 449.0 819.0 L 443.0 819.0 L 442.0 817.0 L 424.0 814.0 L 423.0 812.0 L 419.0 812.0 L 412.0 808.0 L 403.0 807.0 L 398.0 803.0 L 394.0 803.0 L 393.0 801.0 L 382.0 798.0 L 381.0 796.0 L 368.0 791.0 L 367.0 789.0 L 340.0 775.0 L 332.0 768.0 L 328.0 767.0 L 323.0 761.0 L 314.0 756.0 L 287.0 731.0 L 287.0 728.0 L 282.0 725.0 L 260.0 699.0 L 259.0 695.0 L 254.0 691.0 L 247.0 678.0 L 243.0 675.0 L 243.0 672.0 L 237.0 665.0 L 231.0 665.0 Z" fill="currentColor" fill-rule="evenodd"/>
</svg>
