<?xml version="1.0" encoding="UTF-8"?>
<svg fill="currentColor" xmlns="http://www.w3.org/2000/svg" viewBox="0 0 1024 1024" preserveAspectRatio="xMidYMid meet">
  <title>Grow Up Triangles icon</title>
  <path d="M 512.0 114.0 L 504.0 126.0 L 503.0 131.0 L 495.0 141.0 L 494.0 146.0 L 486.0 156.0 L 485.0 161.0 L 474.0 177.0 L 473.0 182.0 L 465.0 192.0 L 464.0 197.0 L 456.0 207.0 L 455.0 212.0 L 447.0 222.0 L 446.0 227.0 L 438.0 237.0 L 437.0 242.0 L 429.0 252.0 L 428.0 257.0 L 408.0 288.0 L 407.0 293.0 L 404.0 295.0 L 398.0 308.0 L 390.0 318.0 L 389.0 323.0 L 386.0 325.0 L 383.0 333.0 L 378.0 339.0 L 377.0 344.0 L 374.0 346.0 L 368.0 359.0 L 360.0 369.0 L 356.0 380.0 L 353.0 382.0 L 347.0 395.0 L 345.0 396.0 L 344.0 405.0 L 407.0 405.0 L 408.0 408.0 L 386.0 446.0 L 378.0 456.0 L 377.0 461.0 L 369.0 471.0 L 368.0 476.0 L 360.0 486.0 L 359.0 491.0 L 357.0 492.0 L 350.0 506.0 L 342.0 516.0 L 341.0 521.0 L 333.0 531.0 L 327.0 544.0 L 324.0 546.0 L 323.0 551.0 L 315.0 561.0 L 303.0 583.0 L 300.0 585.0 L 299.0 590.0 L 291.0 600.0 L 290.0 605.0 L 282.0 615.0 L 278.0 625.0 L 273.0 630.0 L 269.0 640.0 L 264.0 645.0 L 264.0 651.0 L 383.0 651.0 L 384.0 658.0 L 369.0 680.0 L 365.0 689.0 L 360.0 695.0 L 359.0 700.0 L 351.0 710.0 L 350.0 715.0 L 347.0 717.0 L 335.0 739.0 L 327.0 749.0 L 326.0 754.0 L 309.0 779.0 L 305.0 788.0 L 291.0 809.0 L 290.0 814.0 L 281.0 825.0 L 278.0 833.0 L 255.0 869.0 L 254.0 874.0 L 251.0 877.0 L 251.0 884.0 L 771.0 885.0 L 771.0 878.0 L 765.0 871.0 L 764.0 866.0 L 762.0 865.0 L 758.0 856.0 L 741.0 830.0 L 738.0 822.0 L 735.0 820.0 L 729.0 807.0 L 726.0 805.0 L 725.0 800.0 L 717.0 790.0 L 716.0 785.0 L 708.0 775.0 L 707.0 770.0 L 699.0 760.0 L 693.0 747.0 L 690.0 745.0 L 689.0 740.0 L 681.0 730.0 L 680.0 725.0 L 672.0 715.0 L 671.0 710.0 L 663.0 700.0 L 657.0 687.0 L 654.0 685.0 L 653.0 680.0 L 645.0 670.0 L 644.0 665.0 L 638.0 656.0 L 639.0 653.0 L 764.0 652.0 L 764.0 648.0 L 759.0 643.0 L 758.0 638.0 L 750.0 628.0 L 749.0 623.0 L 741.0 613.0 L 737.0 603.0 L 732.0 598.0 L 731.0 593.0 L 717.0 572.0 L 716.0 567.0 L 705.0 551.0 L 704.0 546.0 L 696.0 536.0 L 692.0 527.0 L 687.0 521.0 L 686.0 516.0 L 678.0 506.0 L 674.0 497.0 L 660.0 476.0 L 659.0 471.0 L 651.0 461.0 L 650.0 456.0 L 647.0 454.0 L 644.0 446.0 L 621.0 410.0 L 622.0 405.0 L 684.0 405.0 L 684.0 399.0 L 654.0 350.0 L 653.0 345.0 L 645.0 335.0 L 644.0 330.0 L 636.0 320.0 L 635.0 315.0 L 627.0 305.0 L 626.0 300.0 L 597.0 254.0 L 596.0 249.0 L 588.0 239.0 L 587.0 234.0 L 558.0 188.0 L 557.0 183.0 L 549.0 173.0 L 548.0 168.0 L 537.0 152.0 L 533.0 142.0 L 528.0 137.0 L 521.0 121.0 L 518.0 119.0 L 516.0 114.0 Z M 283.0 860.0 L 288.0 857.0 L 293.0 849.0 L 292.0 848.0 L 296.0 844.0 L 295.0 843.0 L 302.0 834.0 L 301.0 833.0 L 305.0 829.0 L 304.0 828.0 L 311.0 819.0 L 310.0 818.0 L 314.0 814.0 L 313.0 813.0 L 321.0 803.0 L 322.0 798.0 L 326.0 795.0 L 327.0 790.0 L 335.0 780.0 L 334.0 779.0 L 339.0 773.0 L 340.0 768.0 L 344.0 765.0 L 345.0 760.0 L 348.0 758.0 L 353.0 750.0 L 352.0 749.0 L 356.0 745.0 L 355.0 744.0 L 365.0 730.0 L 364.0 729.0 L 372.0 719.0 L 373.0 714.0 L 377.0 711.0 L 378.0 706.0 L 383.0 700.0 L 382.0 699.0 L 386.0 696.0 L 387.0 691.0 L 392.0 685.0 L 391.0 684.0 L 395.0 681.0 L 399.0 672.0 L 440.0 605.0 L 440.0 601.0 L 446.0 597.0 L 447.0 592.0 L 455.0 582.0 L 456.0 577.0 L 464.0 567.0 L 468.0 558.0 L 476.0 547.0 L 477.0 542.0 L 485.0 532.0 L 486.0 527.0 L 489.0 525.0 L 491.0 517.0 L 495.0 514.0 L 495.0 509.0 L 498.0 507.0 L 500.0 502.0 L 506.0 498.0 L 510.0 488.0 L 514.0 487.0 L 527.0 508.0 L 528.0 513.0 L 533.0 518.0 L 534.0 523.0 L 542.0 533.0 L 546.0 543.0 L 551.0 548.0 L 555.0 558.0 L 575.0 589.0 L 576.0 594.0 L 579.0 596.0 L 582.0 604.0 L 605.0 640.0 L 606.0 645.0 L 614.0 655.0 L 615.0 660.0 L 623.0 670.0 L 624.0 675.0 L 632.0 685.0 L 633.0 690.0 L 637.0 693.0 L 636.0 694.0 L 641.0 700.0 L 642.0 705.0 L 646.0 708.0 L 647.0 713.0 L 655.0 723.0 L 654.0 724.0 L 659.0 730.0 L 660.0 735.0 L 664.0 738.0 L 663.0 739.0 L 668.0 745.0 L 669.0 750.0 L 673.0 753.0 L 672.0 754.0 L 676.0 758.0 L 675.0 759.0 L 677.0 760.0 L 678.0 765.0 L 682.0 768.0 L 681.0 769.0 L 686.0 775.0 L 687.0 780.0 L 694.0 789.0 L 693.0 790.0 L 697.0 794.0 L 696.0 795.0 L 701.0 803.0 L 704.0 805.0 L 705.0 810.0 L 709.0 813.0 L 708.0 814.0 L 713.0 820.0 L 714.0 825.0 L 718.0 828.0 L 719.0 833.0 L 727.0 843.0 L 728.0 848.0 L 731.0 850.0 L 732.0 855.0 L 737.0 861.0 L 737.0 865.0 L 510.0 866.0 L 505.0 864.0 L 503.0 866.0 L 450.0 866.0 L 448.0 864.0 L 284.0 864.0 Z M 318.0 841.0 L 318.0 846.0 L 702.0 846.0 L 701.0 839.0 L 696.0 833.0 L 693.0 825.0 L 690.0 823.0 L 689.0 818.0 L 681.0 808.0 L 680.0 803.0 L 672.0 793.0 L 666.0 780.0 L 663.0 778.0 L 659.0 767.0 L 651.0 757.0 L 647.0 748.0 L 642.0 742.0 L 641.0 737.0 L 633.0 727.0 L 629.0 718.0 L 624.0 712.0 L 623.0 707.0 L 615.0 697.0 L 609.0 684.0 L 606.0 682.0 L 605.0 677.0 L 597.0 667.0 L 596.0 662.0 L 588.0 652.0 L 587.0 647.0 L 573.0 624.0 L 570.0 622.0 L 569.0 617.0 L 561.0 607.0 L 560.0 602.0 L 552.0 592.0 L 551.0 587.0 L 543.0 577.0 L 515.0 527.0 L 509.0 527.0 L 501.0 541.0 L 498.0 543.0 L 497.0 548.0 L 495.0 549.0 L 476.0 583.0 L 468.0 593.0 L 467.0 598.0 L 459.0 608.0 L 458.0 613.0 L 455.0 615.0 L 410.0 691.0 L 402.0 701.0 L 401.0 706.0 L 393.0 716.0 L 392.0 721.0 L 384.0 731.0 L 383.0 736.0 L 375.0 746.0 L 374.0 751.0 L 366.0 761.0 L 365.0 766.0 L 362.0 768.0 L 356.0 781.0 L 353.0 783.0 Z M 348.0 826.0 L 351.0 824.0 L 352.0 819.0 L 356.0 816.0 L 355.0 815.0 L 360.0 809.0 L 361.0 804.0 L 365.0 801.0 L 366.0 796.0 L 374.0 786.0 L 375.0 781.0 L 380.0 775.0 L 379.0 774.0 L 383.0 771.0 L 384.0 766.0 L 389.0 760.0 L 388.0 759.0 L 392.0 756.0 L 393.0 751.0 L 401.0 741.0 L 405.0 732.0 L 419.0 711.0 L 420.0 706.0 L 423.0 704.0 L 435.0 682.0 L 443.0 672.0 L 444.0 667.0 L 452.0 657.0 L 456.0 648.0 L 461.0 642.0 L 462.0 637.0 L 485.0 603.0 L 506.0 566.0 L 510.0 561.0 L 514.0 561.0 L 516.0 567.0 L 519.0 569.0 L 533.0 592.0 L 534.0 597.0 L 542.0 607.0 L 543.0 612.0 L 546.0 614.0 L 560.0 637.0 L 561.0 642.0 L 564.0 644.0 L 572.0 659.0 L 575.0 661.0 L 576.0 666.0 L 605.0 712.0 L 606.0 717.0 L 614.0 727.0 L 615.0 732.0 L 631.0 756.0 L 630.0 757.0 L 635.0 763.0 L 636.0 768.0 L 640.0 771.0 L 639.0 772.0 L 649.0 786.0 L 650.0 791.0 L 653.0 793.0 L 660.0 807.0 L 667.0 816.0 L 668.0 821.0 L 673.0 827.0 L 671.0 830.0 L 543.0 830.0 L 541.0 828.0 L 536.0 830.0 L 483.0 830.0 L 481.0 828.0 L 476.0 830.0 L 469.0 830.0 L 467.0 828.0 L 462.0 828.0 L 460.0 830.0 L 447.0 830.0 L 445.0 828.0 L 433.0 828.0 L 431.0 830.0 L 399.0 830.0 L 397.0 828.0 L 349.0 830.0 Z M 384.0 805.0 L 385.0 809.0 L 636.0 809.0 L 636.0 804.0 L 633.0 802.0 L 632.0 797.0 L 618.0 776.0 L 615.0 768.0 L 612.0 766.0 L 611.0 761.0 L 597.0 738.0 L 594.0 736.0 L 593.0 731.0 L 585.0 721.0 L 584.0 716.0 L 514.0 600.0 L 509.0 600.0 L 500.0 616.0 L 483.0 641.0 L 482.0 646.0 L 479.0 648.0 L 467.0 670.0 L 459.0 680.0 L 458.0 685.0 L 450.0 695.0 L 446.0 704.0 L 441.0 710.0 L 440.0 715.0 L 432.0 725.0 L 428.0 734.0 Z M 360.0 598.0 L 377.0 572.0 L 376.0 567.0 L 380.0 566.0 L 383.0 562.0 L 382.0 561.0 L 398.0 538.0 L 399.0 533.0 L 407.0 523.0 L 432.0 479.0 L 435.0 477.0 L 441.0 464.0 L 444.0 462.0 L 450.0 449.0 L 453.0 447.0 L 467.0 424.0 L 468.0 419.0 L 476.0 409.0 L 477.0 404.0 L 485.0 394.0 L 486.0 389.0 L 494.0 379.0 L 495.0 374.0 L 501.0 367.0 L 504.0 359.0 L 507.0 357.0 L 511.0 346.0 L 515.0 347.0 L 524.0 363.0 L 527.0 365.0 L 528.0 370.0 L 569.0 438.0 L 572.0 440.0 L 576.0 449.0 L 608.0 500.0 L 609.0 505.0 L 617.0 515.0 L 618.0 520.0 L 626.0 530.0 L 627.0 535.0 L 635.0 545.0 L 636.0 550.0 L 644.0 560.0 L 645.0 565.0 L 665.0 597.0 L 664.0 600.0 L 658.0 600.0 L 656.0 602.0 L 606.0 602.0 L 603.0 599.0 L 602.0 594.0 L 596.0 587.0 L 597.0 584.0 L 631.0 584.0 L 632.0 579.0 L 621.0 563.0 L 620.0 558.0 L 612.0 548.0 L 611.0 543.0 L 606.0 538.0 L 602.0 528.0 L 591.0 514.0 L 584.0 498.0 L 581.0 496.0 L 575.0 483.0 L 572.0 481.0 L 560.0 459.0 L 552.0 449.0 L 551.0 444.0 L 548.0 442.0 L 545.0 435.0 L 537.0 425.0 L 536.0 420.0 L 534.0 419.0 L 527.0 405.0 L 524.0 403.0 L 519.0 393.0 L 514.0 388.0 L 511.0 388.0 L 486.0 430.0 L 483.0 432.0 L 482.0 437.0 L 474.0 447.0 L 471.0 454.0 L 468.0 456.0 L 447.0 493.0 L 444.0 495.0 L 443.0 500.0 L 435.0 510.0 L 431.0 520.0 L 420.0 534.0 L 419.0 539.0 L 411.0 549.0 L 408.0 556.0 L 405.0 558.0 L 404.0 563.0 L 393.0 579.0 L 394.0 584.0 L 425.0 584.0 L 426.0 589.0 L 423.0 591.0 L 422.0 596.0 L 416.0 602.0 L 406.0 602.0 L 405.0 600.0 L 395.0 600.0 L 394.0 602.0 L 361.0 602.0 Z M 300.0 628.0 L 305.0 620.0 L 304.0 616.0 L 309.0 615.0 L 310.0 610.0 L 314.0 607.0 L 313.0 606.0 L 317.0 601.0 L 316.0 600.0 L 326.0 586.0 L 325.0 582.0 L 328.0 577.0 L 331.0 576.0 L 336.0 570.0 L 337.0 565.0 L 341.0 562.0 L 340.0 561.0 L 350.0 547.0 L 349.0 543.0 L 353.0 541.0 L 352.0 538.0 L 355.0 537.0 L 360.0 531.0 L 366.0 518.0 L 369.0 516.0 L 374.0 508.0 L 373.0 507.0 L 380.0 499.0 L 381.0 494.0 L 384.0 492.0 L 390.0 479.0 L 398.0 469.0 L 399.0 464.0 L 428.0 418.0 L 429.0 413.0 L 437.0 403.0 L 438.0 398.0 L 441.0 396.0 L 444.0 388.0 L 458.0 367.0 L 459.0 362.0 L 462.0 360.0 L 465.0 352.0 L 471.0 345.0 L 474.0 337.0 L 479.0 331.0 L 480.0 326.0 L 488.0 316.0 L 489.0 311.0 L 497.0 301.0 L 498.0 296.0 L 500.0 295.0 L 507.0 281.0 L 512.0 274.0 L 515.0 273.0 L 524.0 288.0 L 527.0 290.0 L 528.0 295.0 L 536.0 305.0 L 537.0 310.0 L 545.0 320.0 L 551.0 333.0 L 554.0 335.0 L 555.0 340.0 L 569.0 361.0 L 572.0 369.0 L 575.0 371.0 L 576.0 376.0 L 578.0 377.0 L 594.0 406.0 L 602.0 416.0 L 603.0 421.0 L 608.0 427.0 L 611.0 435.0 L 614.0 437.0 L 618.0 446.0 L 635.0 472.0 L 638.0 480.0 L 641.0 482.0 L 645.0 491.0 L 649.0 495.0 L 648.0 496.0 L 655.0 505.0 L 654.0 506.0 L 659.0 512.0 L 660.0 517.0 L 664.0 520.0 L 663.0 521.0 L 670.0 531.0 L 669.0 532.0 L 676.0 540.0 L 675.0 542.0 L 679.0 546.0 L 678.0 547.0 L 703.0 586.0 L 704.0 591.0 L 709.0 597.0 L 708.0 598.0 L 712.0 601.0 L 713.0 606.0 L 724.0 621.0 L 723.0 622.0 L 727.0 627.0 L 728.0 632.0 L 624.0 633.0 L 618.0 625.0 L 619.0 620.0 L 697.0 620.0 L 698.0 615.0 L 693.0 610.0 L 689.0 600.0 L 684.0 595.0 L 680.0 585.0 L 675.0 580.0 L 671.0 570.0 L 666.0 565.0 L 662.0 555.0 L 657.0 550.0 L 656.0 545.0 L 642.0 524.0 L 641.0 519.0 L 633.0 509.0 L 632.0 504.0 L 624.0 494.0 L 623.0 489.0 L 615.0 479.0 L 611.0 470.0 L 606.0 464.0 L 605.0 459.0 L 602.0 457.0 L 584.0 425.0 L 573.0 410.0 L 572.0 405.0 L 564.0 395.0 L 563.0 390.0 L 555.0 380.0 L 554.0 375.0 L 540.0 352.0 L 537.0 350.0 L 536.0 345.0 L 516.0 312.0 L 512.0 312.0 L 498.0 333.0 L 497.0 338.0 L 459.0 399.0 L 458.0 404.0 L 450.0 414.0 L 449.0 419.0 L 441.0 429.0 L 440.0 434.0 L 432.0 444.0 L 431.0 449.0 L 423.0 459.0 L 417.0 472.0 L 414.0 474.0 L 407.0 488.0 L 399.0 498.0 L 398.0 503.0 L 378.0 533.0 L 377.0 538.0 L 366.0 552.0 L 365.0 557.0 L 357.0 567.0 L 356.0 572.0 L 348.0 582.0 L 345.0 589.0 L 342.0 591.0 L 335.0 607.0 L 329.0 614.0 L 329.0 620.0 L 403.0 620.0 L 404.0 625.0 L 398.0 633.0 L 301.0 633.0 Z M 380.0 380.0 L 401.0 346.0 L 402.0 341.0 L 410.0 331.0 L 411.0 326.0 L 431.0 295.0 L 432.0 290.0 L 435.0 288.0 L 438.0 277.0 L 444.0 273.0 L 455.0 252.0 L 458.0 250.0 L 459.0 242.0 L 462.0 241.0 L 464.0 235.0 L 468.0 233.0 L 468.0 227.0 L 473.0 226.0 L 473.0 220.0 L 479.0 215.0 L 488.0 198.0 L 491.0 196.0 L 492.0 191.0 L 504.0 173.0 L 504.0 167.0 L 506.0 166.0 L 510.0 157.0 L 514.0 156.0 L 518.0 161.0 L 519.0 166.0 L 527.0 176.0 L 528.0 181.0 L 536.0 191.0 L 537.0 196.0 L 545.0 206.0 L 546.0 211.0 L 554.0 221.0 L 555.0 226.0 L 557.0 227.0 L 564.0 241.0 L 572.0 251.0 L 573.0 256.0 L 581.0 266.0 L 582.0 271.0 L 590.0 281.0 L 591.0 286.0 L 599.0 296.0 L 600.0 301.0 L 602.0 302.0 L 627.0 346.0 L 634.0 355.0 L 633.0 356.0 L 638.0 362.0 L 639.0 367.0 L 643.0 370.0 L 642.0 371.0 L 647.0 377.0 L 648.0 383.0 L 606.0 383.0 L 600.0 374.0 L 601.0 369.0 L 606.0 369.0 L 606.0 364.0 L 603.0 358.0 L 600.0 356.0 L 596.0 347.0 L 582.0 326.0 L 581.0 321.0 L 573.0 311.0 L 567.0 298.0 L 564.0 296.0 L 548.0 267.0 L 540.0 257.0 L 539.0 252.0 L 516.0 214.0 L 512.0 214.0 L 467.0 290.0 L 464.0 292.0 L 458.0 305.0 L 450.0 315.0 L 449.0 320.0 L 441.0 330.0 L 440.0 335.0 L 432.0 345.0 L 431.0 350.0 L 428.0 352.0 L 420.0 365.0 L 421.0 369.0 L 429.0 370.0 L 425.0 381.0 L 422.0 384.0 L 381.0 384.0 Z" fill="currentColor" fill-rule="evenodd"/>
</svg>
