<?xml version="1.0" encoding="UTF-8"?>
<svg fill="currentColor" xmlns="http://www.w3.org/2000/svg" viewBox="0 0 1024 1024" preserveAspectRatio="xMidYMid meet">
  <title>Show Hourglass icon</title>
  <path d="M 182.0 142.0 L 183.0 150.0 L 187.0 153.0 L 193.0 165.0 L 198.0 169.0 L 200.0 175.0 L 205.0 179.0 L 205.0 182.0 L 208.0 184.0 L 212.0 192.0 L 217.0 196.0 L 220.0 203.0 L 224.0 207.0 L 223.0 208.0 L 227.0 211.0 L 235.0 225.0 L 239.0 228.0 L 257.0 257.0 L 262.0 261.0 L 262.0 264.0 L 265.0 266.0 L 272.0 279.0 L 284.0 293.0 L 284.0 296.0 L 292.0 305.0 L 295.0 312.0 L 299.0 315.0 L 300.0 319.0 L 312.0 333.0 L 312.0 336.0 L 317.0 340.0 L 332.0 364.0 L 336.0 367.0 L 337.0 371.0 L 349.0 385.0 L 349.0 388.0 L 359.0 400.0 L 359.0 403.0 L 364.0 407.0 L 367.0 414.0 L 371.0 417.0 L 372.0 421.0 L 381.0 432.0 L 382.0 436.0 L 391.0 446.0 L 394.0 453.0 L 399.0 457.0 L 402.0 464.0 L 406.0 467.0 L 406.0 470.0 L 409.0 472.0 L 417.0 486.0 L 421.0 489.0 L 434.0 509.0 L 433.0 515.0 L 424.0 525.0 L 416.0 539.0 L 412.0 542.0 L 411.0 546.0 L 401.0 558.0 L 401.0 561.0 L 397.0 564.0 L 394.0 571.0 L 389.0 575.0 L 382.0 588.0 L 377.0 592.0 L 361.0 619.0 L 335.0 653.0 L 334.0 658.0 L 329.0 662.0 L 327.0 668.0 L 322.0 672.0 L 322.0 675.0 L 319.0 677.0 L 315.0 685.0 L 310.0 689.0 L 309.0 693.0 L 302.0 701.0 L 299.0 708.0 L 295.0 711.0 L 289.0 723.0 L 285.0 726.0 L 274.0 745.0 L 270.0 748.0 L 264.0 760.0 L 260.0 763.0 L 255.0 772.0 L 252.0 774.0 L 252.0 777.0 L 240.0 791.0 L 239.0 795.0 L 233.0 802.0 L 234.0 803.0 L 230.0 806.0 L 227.0 813.0 L 218.0 823.0 L 217.0 828.0 L 208.0 838.0 L 202.0 850.0 L 198.0 853.0 L 192.0 865.0 L 185.0 873.0 L 185.0 881.0 L 840.0 881.0 L 840.0 875.0 L 835.0 870.0 L 834.0 865.0 L 825.0 855.0 L 819.0 843.0 L 815.0 840.0 L 809.0 828.0 L 805.0 825.0 L 797.0 811.0 L 793.0 808.0 L 794.0 807.0 L 788.0 800.0 L 787.0 796.0 L 783.0 793.0 L 784.0 792.0 L 778.0 785.0 L 777.0 781.0 L 772.0 777.0 L 768.0 769.0 L 765.0 767.0 L 765.0 764.0 L 753.0 750.0 L 747.0 738.0 L 743.0 735.0 L 743.0 732.0 L 735.0 723.0 L 733.0 717.0 L 728.0 713.0 L 712.0 686.0 L 708.0 683.0 L 700.0 669.0 L 695.0 665.0 L 695.0 662.0 L 686.0 651.0 L 685.0 647.0 L 681.0 644.0 L 682.0 643.0 L 676.0 636.0 L 675.0 632.0 L 671.0 629.0 L 665.0 617.0 L 653.0 603.0 L 653.0 600.0 L 650.0 598.0 L 643.0 585.0 L 638.0 581.0 L 625.0 559.0 L 621.0 556.0 L 620.0 552.0 L 616.0 549.0 L 608.0 535.0 L 591.0 512.0 L 591.0 508.0 L 595.0 504.0 L 594.0 503.0 L 598.0 500.0 L 600.0 494.0 L 613.0 478.0 L 630.0 450.0 L 635.0 446.0 L 646.0 427.0 L 658.0 413.0 L 658.0 410.0 L 663.0 406.0 L 668.0 398.0 L 668.0 395.0 L 673.0 391.0 L 677.0 385.0 L 676.0 384.0 L 685.0 374.0 L 703.0 345.0 L 708.0 341.0 L 712.0 333.0 L 715.0 331.0 L 715.0 328.0 L 720.0 324.0 L 723.0 317.0 L 732.0 307.0 L 748.0 280.0 L 752.0 277.0 L 760.0 263.0 L 765.0 259.0 L 765.0 256.0 L 768.0 254.0 L 773.0 243.0 L 779.0 238.0 L 778.0 237.0 L 785.0 229.0 L 785.0 226.0 L 790.0 222.0 L 800.0 205.0 L 809.0 195.0 L 815.0 183.0 L 822.0 175.0 L 822.0 169.0 L 829.0 165.0 L 835.0 153.0 L 839.0 150.0 L 840.0 142.0 Z M 245.0 857.0 L 285.0 838.0 L 290.0 834.0 L 295.0 833.0 L 300.0 829.0 L 725.0 829.0 L 733.0 833.0 L 735.0 836.0 L 777.0 856.0 L 779.0 860.0 L 246.0 861.0 Z M 349.0 809.0 L 357.0 804.0 L 367.0 801.0 L 368.0 799.0 L 375.0 798.0 L 376.0 796.0 L 387.0 793.0 L 392.0 789.0 L 398.0 788.0 L 403.0 784.0 L 407.0 784.0 L 422.0 778.0 L 423.0 776.0 L 433.0 773.0 L 438.0 769.0 L 445.0 768.0 L 450.0 764.0 L 466.0 759.0 L 477.0 752.0 L 479.0 753.0 L 484.0 751.0 L 485.0 749.0 L 495.0 746.0 L 503.0 741.0 L 518.0 739.0 L 559.0 758.0 L 561.0 757.0 L 577.0 766.0 L 589.0 769.0 L 590.0 771.0 L 600.0 774.0 L 605.0 778.0 L 612.0 779.0 L 613.0 781.0 L 634.0 789.0 L 639.0 793.0 L 651.0 796.0 L 652.0 798.0 L 669.0 804.0 L 670.0 806.0 L 677.0 808.0 L 678.0 812.0 L 350.0 813.0 Z M 522.0 540.0 L 525.0 540.0 L 533.0 549.0 L 533.0 552.0 L 536.0 554.0 L 540.0 560.0 L 539.0 561.0 L 548.0 571.0 L 551.0 578.0 L 555.0 582.0 L 554.0 583.0 L 558.0 586.0 L 566.0 600.0 L 570.0 603.0 L 573.0 610.0 L 593.0 636.0 L 600.0 649.0 L 605.0 653.0 L 608.0 660.0 L 625.0 683.0 L 626.0 687.0 L 631.0 691.0 L 638.0 704.0 L 643.0 708.0 L 647.0 714.0 L 646.0 715.0 L 650.0 718.0 L 650.0 721.0 L 662.0 735.0 L 661.0 737.0 L 667.0 742.0 L 673.0 754.0 L 677.0 757.0 L 680.0 764.0 L 688.0 773.0 L 693.0 782.0 L 697.0 785.0 L 698.0 791.0 L 703.0 797.0 L 702.0 801.0 L 691.0 798.0 L 690.0 796.0 L 687.0 796.0 L 676.0 789.0 L 669.0 788.0 L 668.0 786.0 L 658.0 783.0 L 653.0 779.0 L 646.0 778.0 L 638.0 773.0 L 634.0 773.0 L 633.0 771.0 L 623.0 768.0 L 613.0 762.0 L 611.0 763.0 L 602.0 757.0 L 600.0 758.0 L 590.0 752.0 L 580.0 749.0 L 579.0 747.0 L 572.0 746.0 L 567.0 742.0 L 549.0 736.0 L 544.0 732.0 L 537.0 731.0 L 532.0 727.0 L 524.0 726.0 L 521.0 723.0 Z M 503.0 540.0 L 504.0 723.0 L 466.0 741.0 L 455.0 744.0 L 447.0 749.0 L 443.0 749.0 L 431.0 756.0 L 420.0 759.0 L 412.0 764.0 L 408.0 764.0 L 396.0 771.0 L 373.0 779.0 L 368.0 783.0 L 349.0 789.0 L 348.0 791.0 L 338.0 794.0 L 326.0 801.0 L 321.0 801.0 L 320.0 797.0 L 324.0 794.0 L 325.0 789.0 L 334.0 779.0 L 345.0 760.0 L 349.0 757.0 L 352.0 750.0 L 357.0 746.0 L 357.0 743.0 L 366.0 733.0 L 365.0 732.0 L 369.0 729.0 L 370.0 725.0 L 376.0 718.0 L 375.0 717.0 L 381.0 712.0 L 382.0 708.0 L 391.0 697.0 L 392.0 693.0 L 396.0 690.0 L 402.0 678.0 L 414.0 664.0 L 414.0 661.0 L 419.0 657.0 L 424.0 649.0 L 424.0 646.0 L 429.0 642.0 L 437.0 628.0 L 441.0 625.0 L 449.0 611.0 L 464.0 592.0 L 464.0 589.0 L 469.0 585.0 L 474.0 576.0 L 478.0 573.0 L 477.0 572.0 L 483.0 566.0 L 482.0 565.0 L 489.0 557.0 L 489.0 554.0 L 493.0 551.0 L 496.0 544.0 L 500.0 540.0 Z M 537.0 520.0 L 570.0 520.0 L 580.0 531.0 L 585.0 542.0 L 590.0 546.0 L 596.0 558.0 L 600.0 561.0 L 611.0 580.0 L 615.0 583.0 L 621.0 595.0 L 626.0 599.0 L 633.0 612.0 L 642.0 623.0 L 643.0 627.0 L 647.0 630.0 L 646.0 631.0 L 652.0 638.0 L 653.0 642.0 L 665.0 656.0 L 665.0 659.0 L 675.0 671.0 L 675.0 674.0 L 680.0 678.0 L 685.0 689.0 L 697.0 703.0 L 697.0 706.0 L 700.0 708.0 L 708.0 722.0 L 712.0 725.0 L 713.0 730.0 L 722.0 740.0 L 728.0 752.0 L 737.0 762.0 L 750.0 784.0 L 754.0 787.0 L 753.0 789.0 L 757.0 792.0 L 765.0 806.0 L 769.0 809.0 L 768.0 810.0 L 772.0 816.0 L 777.0 820.0 L 777.0 823.0 L 787.0 835.0 L 787.0 838.0 L 790.0 840.0 L 789.0 845.0 L 779.0 841.0 L 777.0 838.0 L 771.0 836.0 L 753.0 824.0 L 748.0 823.0 L 737.0 814.0 L 733.0 806.0 L 728.0 802.0 L 728.0 799.0 L 725.0 797.0 L 722.0 790.0 L 718.0 787.0 L 718.0 784.0 L 708.0 773.0 L 707.0 768.0 L 698.0 758.0 L 695.0 751.0 L 690.0 747.0 L 690.0 744.0 L 686.0 741.0 L 687.0 740.0 L 683.0 734.0 L 678.0 730.0 L 677.0 725.0 L 668.0 715.0 L 668.0 712.0 L 656.0 698.0 L 645.0 679.0 L 641.0 676.0 L 633.0 662.0 L 621.0 648.0 L 621.0 645.0 L 611.0 633.0 L 610.0 629.0 L 606.0 626.0 L 600.0 614.0 L 594.0 609.0 L 595.0 608.0 L 579.0 587.0 L 580.0 586.0 L 574.0 579.0 L 573.0 575.0 L 568.0 571.0 L 563.0 562.0 L 559.0 559.0 L 553.0 547.0 L 544.0 537.0 L 536.0 524.0 Z M 488.0 520.0 L 489.0 524.0 L 483.0 534.0 L 469.0 550.0 L 463.0 562.0 L 454.0 572.0 L 446.0 586.0 L 442.0 589.0 L 443.0 590.0 L 439.0 594.0 L 436.0 601.0 L 427.0 611.0 L 428.0 612.0 L 424.0 618.0 L 419.0 622.0 L 411.0 636.0 L 407.0 639.0 L 396.0 658.0 L 384.0 672.0 L 384.0 675.0 L 374.0 687.0 L 374.0 690.0 L 369.0 694.0 L 351.0 723.0 L 345.0 728.0 L 346.0 729.0 L 341.0 738.0 L 335.0 743.0 L 336.0 744.0 L 330.0 750.0 L 331.0 751.0 L 327.0 754.0 L 327.0 757.0 L 307.0 783.0 L 304.0 790.0 L 300.0 793.0 L 294.0 805.0 L 289.0 809.0 L 289.0 812.0 L 283.0 818.0 L 276.0 821.0 L 273.0 826.0 L 267.0 826.0 L 241.0 843.0 L 236.0 843.0 L 235.0 839.0 L 237.0 835.0 L 242.0 831.0 L 248.0 819.0 L 257.0 809.0 L 258.0 804.0 L 264.0 799.0 L 263.0 797.0 L 274.0 784.0 L 280.0 772.0 L 284.0 769.0 L 285.0 765.0 L 289.0 762.0 L 294.0 753.0 L 297.0 751.0 L 297.0 748.0 L 307.0 736.0 L 307.0 733.0 L 319.0 719.0 L 325.0 707.0 L 329.0 704.0 L 330.0 700.0 L 337.0 692.0 L 340.0 685.0 L 344.0 682.0 L 355.0 663.0 L 367.0 649.0 L 367.0 646.0 L 371.0 643.0 L 370.0 642.0 L 377.0 634.0 L 377.0 631.0 L 389.0 617.0 L 390.0 613.0 L 399.0 602.0 L 399.0 599.0 L 404.0 595.0 L 412.0 581.0 L 416.0 578.0 L 422.0 566.0 L 427.0 562.0 L 434.0 549.0 L 446.0 535.0 L 452.0 523.0 L 457.0 518.0 L 465.0 518.0 L 466.0 520.0 Z M 580.0 327.0 L 581.0 332.0 L 568.0 349.0 L 568.0 352.0 L 563.0 356.0 L 560.0 363.0 L 554.0 368.0 L 555.0 370.0 L 543.0 384.0 L 543.0 387.0 L 531.0 401.0 L 528.0 408.0 L 525.0 411.0 L 522.0 411.0 L 521.0 357.0 L 544.0 346.0 L 550.0 341.0 L 554.0 341.0 L 567.0 332.0 Z M 445.0 327.0 L 450.0 327.0 L 453.0 331.0 L 468.0 337.0 L 471.0 341.0 L 476.0 342.0 L 481.0 346.0 L 486.0 347.0 L 490.0 351.0 L 504.0 357.0 L 503.0 411.0 L 498.0 409.0 L 491.0 396.0 L 486.0 392.0 L 482.0 386.0 L 483.0 385.0 L 479.0 382.0 L 479.0 379.0 L 467.0 365.0 L 456.0 346.0 L 452.0 343.0 L 444.0 331.0 Z M 697.0 234.0 L 698.0 238.0 L 690.0 247.0 L 683.0 260.0 L 678.0 264.0 L 667.0 283.0 L 661.0 288.0 L 662.0 289.0 L 655.0 297.0 L 655.0 300.0 L 651.0 303.0 L 652.0 304.0 L 638.0 321.0 L 623.0 345.0 L 618.0 349.0 L 618.0 352.0 L 606.0 366.0 L 605.0 370.0 L 601.0 373.0 L 583.0 402.0 L 578.0 406.0 L 568.0 422.0 L 564.0 425.0 L 565.0 426.0 L 556.0 437.0 L 553.0 444.0 L 549.0 447.0 L 550.0 448.0 L 544.0 454.0 L 545.0 455.0 L 539.0 460.0 L 533.0 472.0 L 528.0 476.0 L 526.0 482.0 L 522.0 483.0 L 521.0 446.0 L 523.0 442.0 L 531.0 433.0 L 531.0 430.0 L 536.0 422.0 L 541.0 418.0 L 541.0 415.0 L 544.0 413.0 L 549.0 404.0 L 553.0 401.0 L 554.0 397.0 L 564.0 382.0 L 568.0 379.0 L 571.0 372.0 L 580.0 362.0 L 579.0 361.0 L 585.0 355.0 L 584.0 354.0 L 588.0 351.0 L 588.0 348.0 L 591.0 346.0 L 601.0 330.0 L 605.0 327.0 L 608.0 320.0 L 616.0 311.0 L 616.0 308.0 L 626.0 296.0 L 626.0 293.0 L 631.0 289.0 L 654.0 255.0 L 659.0 254.0 L 671.0 245.0 L 678.0 244.0 L 681.0 240.0 L 690.0 237.0 L 692.0 234.0 Z M 326.0 234.0 L 334.0 235.0 L 344.0 242.0 L 370.0 254.0 L 374.0 258.0 L 382.0 272.0 L 391.0 283.0 L 392.0 287.0 L 406.0 303.0 L 406.0 306.0 L 409.0 308.0 L 412.0 315.0 L 416.0 318.0 L 424.0 332.0 L 433.0 342.0 L 432.0 343.0 L 438.0 349.0 L 437.0 350.0 L 443.0 356.0 L 442.0 357.0 L 446.0 360.0 L 449.0 367.0 L 453.0 371.0 L 452.0 372.0 L 463.0 384.0 L 479.0 411.0 L 484.0 415.0 L 488.0 423.0 L 493.0 427.0 L 496.0 434.0 L 503.0 441.0 L 503.0 481.0 L 500.0 481.0 L 496.0 477.0 L 491.0 468.0 L 482.0 458.0 L 483.0 457.0 L 479.0 454.0 L 479.0 451.0 L 467.0 436.0 L 468.0 435.0 L 464.0 432.0 L 442.0 399.0 L 437.0 395.0 L 434.0 388.0 L 421.0 372.0 L 417.0 364.0 L 412.0 360.0 L 406.0 348.0 L 402.0 345.0 L 401.0 341.0 L 396.0 337.0 L 389.0 324.0 L 377.0 310.0 L 377.0 307.0 L 372.0 303.0 L 364.0 289.0 L 360.0 286.0 L 361.0 285.0 L 355.0 279.0 L 356.0 278.0 L 350.0 273.0 L 347.0 266.0 L 334.0 250.0 L 329.0 241.0 L 325.0 238.0 Z M 334.0 216.0 L 689.0 215.0 L 690.0 219.0 L 684.0 224.0 L 679.0 225.0 L 674.0 229.0 L 669.0 230.0 L 665.0 234.0 L 643.0 244.0 L 620.0 278.0 L 608.0 292.0 L 607.0 296.0 L 584.0 307.0 L 580.0 311.0 L 545.0 327.0 L 515.0 344.0 L 510.0 344.0 L 504.0 339.0 L 485.0 331.0 L 479.0 326.0 L 475.0 326.0 L 472.0 322.0 L 467.0 321.0 L 462.0 317.0 L 457.0 316.0 L 452.0 312.0 L 447.0 311.0 L 442.0 307.0 L 420.0 297.0 L 382.0 244.0 L 334.0 219.0 Z M 238.0 185.0 L 251.0 190.0 L 277.0 207.0 L 283.0 209.0 L 294.0 221.0 L 297.0 228.0 L 307.0 242.0 L 312.0 246.0 L 312.0 249.0 L 329.0 270.0 L 344.0 294.0 L 349.0 298.0 L 352.0 305.0 L 361.0 315.0 L 367.0 327.0 L 376.0 337.0 L 379.0 344.0 L 384.0 348.0 L 384.0 351.0 L 389.0 355.0 L 392.0 362.0 L 401.0 372.0 L 407.0 384.0 L 421.0 400.0 L 421.0 403.0 L 424.0 405.0 L 428.0 411.0 L 427.0 412.0 L 438.0 424.0 L 437.0 425.0 L 446.0 438.0 L 451.0 442.0 L 454.0 449.0 L 458.0 453.0 L 457.0 454.0 L 463.0 459.0 L 471.0 473.0 L 476.0 477.0 L 476.0 480.0 L 489.0 497.0 L 488.0 501.0 L 455.0 501.0 L 452.0 498.0 L 442.0 481.0 L 434.0 472.0 L 431.0 465.0 L 422.0 455.0 L 416.0 443.0 L 411.0 439.0 L 407.0 431.0 L 404.0 429.0 L 404.0 426.0 L 399.0 422.0 L 394.0 411.0 L 389.0 407.0 L 386.0 400.0 L 377.0 390.0 L 362.0 366.0 L 357.0 362.0 L 357.0 359.0 L 352.0 355.0 L 349.0 348.0 L 340.0 338.0 L 334.0 326.0 L 325.0 316.0 L 322.0 309.0 L 317.0 305.0 L 314.0 298.0 L 300.0 281.0 L 294.0 269.0 L 290.0 266.0 L 282.0 252.0 L 270.0 238.0 L 269.0 233.0 L 260.0 223.0 L 260.0 220.0 L 248.0 206.0 L 247.0 202.0 L 243.0 199.0 L 242.0 194.0 L 237.0 189.0 Z M 786.0 184.0 L 787.0 188.0 L 777.0 200.0 L 777.0 203.0 L 773.0 206.0 L 774.0 207.0 L 767.0 215.0 L 767.0 218.0 L 755.0 232.0 L 754.0 236.0 L 748.0 243.0 L 749.0 244.0 L 743.0 249.0 L 737.0 261.0 L 727.0 272.0 L 725.0 278.0 L 720.0 282.0 L 720.0 285.0 L 717.0 287.0 L 700.0 315.0 L 695.0 319.0 L 688.0 332.0 L 683.0 336.0 L 677.0 348.0 L 668.0 358.0 L 665.0 365.0 L 660.0 369.0 L 660.0 372.0 L 656.0 375.0 L 657.0 376.0 L 653.0 382.0 L 648.0 386.0 L 647.0 390.0 L 641.0 397.0 L 642.0 398.0 L 638.0 401.0 L 630.0 415.0 L 621.0 425.0 L 615.0 437.0 L 611.0 440.0 L 605.0 452.0 L 596.0 462.0 L 593.0 469.0 L 590.0 471.0 L 570.0 501.0 L 537.0 501.0 L 536.0 497.0 L 541.0 489.0 L 546.0 485.0 L 546.0 482.0 L 558.0 468.0 L 569.0 449.0 L 583.0 433.0 L 584.0 428.0 L 593.0 418.0 L 596.0 410.0 L 610.0 394.0 L 616.0 382.0 L 621.0 378.0 L 621.0 375.0 L 626.0 371.0 L 636.0 354.0 L 650.0 337.0 L 653.0 330.0 L 658.0 326.0 L 658.0 323.0 L 668.0 311.0 L 668.0 308.0 L 673.0 304.0 L 677.0 298.0 L 676.0 297.0 L 680.0 294.0 L 681.0 290.0 L 692.0 276.0 L 691.0 275.0 L 695.0 272.0 L 698.0 265.0 L 707.0 255.0 L 715.0 241.0 L 720.0 237.0 L 735.0 213.0 L 746.0 205.0 L 751.0 204.0 L 754.0 200.0 L 764.0 194.0 L 780.0 187.0 L 783.0 183.0 Z M 243.0 166.0 L 247.0 165.0 L 248.0 162.0 L 251.0 162.0 L 252.0 165.0 L 779.0 165.0 L 780.0 169.0 L 771.0 175.0 L 749.0 185.0 L 745.0 189.0 L 731.0 195.0 L 727.0 199.0 L 710.0 199.0 L 708.0 197.0 L 700.0 197.0 L 699.0 199.0 L 679.0 199.0 L 678.0 197.0 L 664.0 197.0 L 662.0 199.0 L 639.0 199.0 L 638.0 197.0 L 525.0 197.0 L 523.0 199.0 L 519.0 197.0 L 480.0 197.0 L 478.0 199.0 L 437.0 199.0 L 435.0 197.0 L 429.0 197.0 L 428.0 199.0 L 298.0 199.0 L 297.0 197.0 L 278.0 189.0 L 268.0 182.0 L 265.0 182.0 L 261.0 178.0 L 246.0 172.0 L 243.0 169.0 Z" fill="currentColor" fill-rule="evenodd"/>
</svg>
