<?xml version="1.0" encoding="UTF-8"?>
<svg fill="currentColor" xmlns="http://www.w3.org/2000/svg" viewBox="0 0 1024 1024" preserveAspectRatio="xMidYMid meet">
  <title>Wake Up Eye icon</title>
  <path d="M 489.0 430.0 L 487.0 432.0 L 458.0 434.0 L 456.0 436.0 L 446.0 437.0 L 445.0 439.0 L 423.0 443.0 L 419.0 446.0 L 394.0 454.0 L 384.0 460.0 L 378.0 461.0 L 377.0 463.0 L 364.0 468.0 L 363.0 470.0 L 358.0 471.0 L 356.0 474.0 L 348.0 477.0 L 346.0 480.0 L 341.0 481.0 L 314.0 498.0 L 285.0 521.0 L 276.0 526.0 L 247.0 553.0 L 245.0 553.0 L 221.0 577.0 L 221.0 581.0 L 237.0 594.0 L 245.0 603.0 L 265.0 618.0 L 276.0 630.0 L 288.0 638.0 L 297.0 648.0 L 299.0 648.0 L 318.0 666.0 L 320.0 666.0 L 354.0 698.0 L 367.0 707.0 L 379.0 720.0 L 381.0 720.0 L 402.0 740.0 L 404.0 740.0 L 426.0 761.0 L 428.0 761.0 L 433.0 767.0 L 452.0 782.0 L 459.0 790.0 L 479.0 805.0 L 488.0 815.0 L 502.0 825.0 L 508.0 832.0 L 515.0 833.0 L 576.0 781.0 L 582.0 774.0 L 597.0 763.0 L 646.0 717.0 L 648.0 717.0 L 698.0 671.0 L 700.0 671.0 L 711.0 659.0 L 713.0 659.0 L 779.0 600.0 L 781.0 600.0 L 801.0 581.0 L 801.0 578.0 L 750.0 529.0 L 723.0 508.0 L 701.0 494.0 L 699.0 491.0 L 683.0 483.0 L 665.0 471.0 L 646.0 463.0 L 645.0 461.0 L 629.0 456.0 L 621.0 451.0 L 601.0 446.0 L 597.0 443.0 L 587.0 442.0 L 585.0 440.0 L 563.0 436.0 L 561.0 434.0 L 533.0 432.0 L 532.0 430.0 Z M 365.0 682.0 L 369.0 681.0 L 386.0 689.0 L 392.0 690.0 L 403.0 696.0 L 407.0 696.0 L 408.0 698.0 L 418.0 700.0 L 419.0 702.0 L 426.0 703.0 L 428.0 705.0 L 440.0 707.0 L 452.0 712.0 L 463.0 713.0 L 465.0 715.0 L 490.0 717.0 L 491.0 719.0 L 530.0 719.0 L 532.0 717.0 L 559.0 715.0 L 561.0 713.0 L 572.0 712.0 L 574.0 710.0 L 583.0 709.0 L 584.0 707.0 L 596.0 705.0 L 604.0 702.0 L 605.0 700.0 L 616.0 698.0 L 625.0 693.0 L 631.0 692.0 L 632.0 690.0 L 634.0 691.0 L 642.0 686.0 L 648.0 685.0 L 654.0 681.0 L 657.0 681.0 L 658.0 684.0 L 557.0 774.0 L 555.0 774.0 L 547.0 783.0 L 532.0 794.0 L 523.0 804.0 L 512.0 811.0 L 483.0 787.0 L 475.0 778.0 L 463.0 770.0 L 434.0 743.0 L 432.0 743.0 L 423.0 733.0 L 412.0 726.0 L 403.0 716.0 L 366.0 685.0 Z M 407.0 467.0 L 411.0 467.0 L 412.0 470.0 L 393.0 491.0 L 378.0 519.0 L 378.0 523.0 L 376.0 524.0 L 373.0 532.0 L 374.0 535.0 L 372.0 537.0 L 368.0 560.0 L 368.0 586.0 L 372.0 611.0 L 374.0 613.0 L 373.0 614.0 L 375.0 616.0 L 379.0 631.0 L 381.0 632.0 L 386.0 645.0 L 396.0 661.0 L 409.0 674.0 L 409.0 679.0 L 401.0 678.0 L 391.0 674.0 L 390.0 672.0 L 384.0 671.0 L 383.0 669.0 L 375.0 667.0 L 329.0 643.0 L 283.0 611.0 L 263.0 593.0 L 252.0 586.0 L 246.0 579.0 L 247.0 575.0 L 265.0 557.0 L 326.0 509.0 L 353.0 492.0 L 366.0 487.0 L 367.0 485.0 L 372.0 484.0 L 383.0 477.0 L 386.0 477.0 L 392.0 472.0 L 393.0 473.0 Z M 607.0 464.0 L 637.0 475.0 L 670.0 492.0 L 697.0 509.0 L 741.0 543.0 L 777.0 577.0 L 777.0 581.0 L 759.0 594.0 L 754.0 600.0 L 752.0 600.0 L 724.0 623.0 L 694.0 643.0 L 646.0 668.0 L 640.0 669.0 L 633.0 674.0 L 624.0 676.0 L 612.0 682.0 L 609.0 682.0 L 608.0 679.0 L 618.0 669.0 L 628.0 653.0 L 631.0 651.0 L 641.0 631.0 L 642.0 625.0 L 644.0 624.0 L 645.0 616.0 L 647.0 615.0 L 648.0 605.0 L 650.0 603.0 L 649.0 597.0 L 651.0 595.0 L 652.0 568.0 L 651.0 552.0 L 649.0 551.0 L 650.0 544.0 L 648.0 542.0 L 645.0 526.0 L 642.0 522.0 L 640.0 514.0 L 638.0 513.0 L 637.0 507.0 L 625.0 488.0 L 606.0 468.0 Z M 486.0 448.0 L 537.0 448.0 L 538.0 450.0 L 548.0 451.0 L 565.0 458.0 L 571.0 463.0 L 582.0 468.0 L 599.0 483.0 L 612.0 498.0 L 611.0 499.0 L 616.0 503.0 L 617.0 508.0 L 620.0 510.0 L 621.0 515.0 L 627.0 524.0 L 627.0 528.0 L 629.0 529.0 L 628.0 531.0 L 633.0 542.0 L 634.0 554.0 L 636.0 556.0 L 636.0 590.0 L 634.0 592.0 L 633.0 605.0 L 631.0 606.0 L 630.0 615.0 L 628.0 616.0 L 629.0 617.0 L 624.0 626.0 L 623.0 632.0 L 614.0 644.0 L 613.0 649.0 L 597.0 665.0 L 597.0 667.0 L 581.0 681.0 L 565.0 689.0 L 564.0 691.0 L 545.0 698.0 L 535.0 699.0 L 534.0 701.0 L 489.0 701.0 L 488.0 699.0 L 476.0 698.0 L 475.0 696.0 L 468.0 695.0 L 452.0 688.0 L 450.0 685.0 L 445.0 684.0 L 427.0 668.0 L 425.0 668.0 L 404.0 643.0 L 394.0 624.0 L 395.0 622.0 L 390.0 613.0 L 389.0 603.0 L 387.0 602.0 L 388.0 598.0 L 386.0 596.0 L 385.0 586.0 L 386.0 551.0 L 388.0 549.0 L 387.0 546.0 L 389.0 544.0 L 393.0 527.0 L 395.0 526.0 L 397.0 518.0 L 405.0 506.0 L 404.0 505.0 L 412.0 496.0 L 411.0 495.0 L 434.0 472.0 L 435.0 473.0 L 444.0 465.0 L 474.0 451.0 L 485.0 450.0 Z M 501.0 539.0 L 500.0 541.0 L 489.0 546.0 L 478.0 561.0 L 478.0 587.0 L 480.0 588.0 L 481.0 593.0 L 496.0 606.0 L 504.0 608.0 L 518.0 608.0 L 526.0 606.0 L 538.0 597.0 L 540.0 591.0 L 542.0 590.0 L 543.0 583.0 L 545.0 581.0 L 545.0 565.0 L 543.0 564.0 L 543.0 560.0 L 539.0 552.0 L 532.0 545.0 L 523.0 541.0 L 522.0 539.0 Z M 136.0 517.0 L 136.0 522.0 L 139.0 523.0 L 146.0 531.0 L 163.0 543.0 L 182.0 560.0 L 188.0 560.0 L 203.0 542.0 L 255.0 492.0 L 263.0 488.0 L 268.0 482.0 L 283.0 473.0 L 292.0 465.0 L 297.0 464.0 L 299.0 461.0 L 308.0 457.0 L 315.0 451.0 L 346.0 436.0 L 347.0 434.0 L 352.0 433.0 L 353.0 431.0 L 361.0 429.0 L 386.0 417.0 L 393.0 416.0 L 394.0 414.0 L 413.0 409.0 L 414.0 407.0 L 439.0 402.0 L 441.0 400.0 L 455.0 399.0 L 457.0 397.0 L 493.0 395.0 L 495.0 393.0 L 531.0 393.0 L 533.0 395.0 L 568.0 397.0 L 569.0 399.0 L 583.0 400.0 L 595.0 405.0 L 610.0 407.0 L 663.0 427.0 L 664.0 429.0 L 691.0 441.0 L 697.0 446.0 L 704.0 448.0 L 723.0 460.0 L 725.0 463.0 L 734.0 467.0 L 746.0 477.0 L 754.0 481.0 L 759.0 487.0 L 768.0 492.0 L 774.0 499.0 L 784.0 506.0 L 837.0 560.0 L 841.0 560.0 L 887.0 522.0 L 886.0 515.0 L 877.0 507.0 L 878.0 506.0 L 830.0 458.0 L 811.0 442.0 L 809.0 442.0 L 804.0 436.0 L 761.0 406.0 L 727.0 388.0 L 721.0 383.0 L 709.0 378.0 L 707.0 373.0 L 722.0 349.0 L 723.0 340.0 L 692.0 324.0 L 687.0 323.0 L 680.0 318.0 L 674.0 317.0 L 670.0 314.0 L 667.0 314.0 L 664.0 317.0 L 660.0 326.0 L 657.0 328.0 L 643.0 353.0 L 638.0 358.0 L 636.0 364.0 L 619.0 391.0 L 602.0 388.0 L 601.0 386.0 L 591.0 385.0 L 580.0 381.0 L 580.0 376.0 L 582.0 374.0 L 581.0 372.0 L 589.0 353.0 L 591.0 341.0 L 594.0 337.0 L 594.0 333.0 L 596.0 332.0 L 597.0 325.0 L 599.0 323.0 L 598.0 321.0 L 600.0 319.0 L 601.0 312.0 L 603.0 311.0 L 603.0 306.0 L 606.0 302.0 L 608.0 291.0 L 610.0 290.0 L 611.0 282.0 L 613.0 281.0 L 614.0 274.0 L 616.0 272.0 L 615.0 269.0 L 617.0 267.0 L 621.0 251.0 L 623.0 250.0 L 628.0 230.0 L 630.0 229.0 L 631.0 219.0 L 626.0 216.0 L 617.0 215.0 L 617.0 218.0 L 611.0 221.0 L 609.0 232.0 L 607.0 234.0 L 606.0 241.0 L 604.0 242.0 L 596.0 271.0 L 594.0 272.0 L 593.0 281.0 L 590.0 285.0 L 589.0 292.0 L 587.0 293.0 L 582.0 314.0 L 577.0 325.0 L 578.0 327.0 L 576.0 328.0 L 575.0 336.0 L 573.0 337.0 L 562.0 374.0 L 559.0 378.0 L 553.0 378.0 L 551.0 376.0 L 524.0 375.0 L 523.0 190.0 L 504.0 191.0 L 503.0 375.0 L 478.0 376.0 L 476.0 378.0 L 461.0 377.0 L 450.0 341.0 L 448.0 340.0 L 447.0 333.0 L 445.0 331.0 L 446.0 329.0 L 444.0 327.0 L 443.0 320.0 L 441.0 319.0 L 437.0 301.0 L 434.0 298.0 L 433.0 290.0 L 431.0 289.0 L 430.0 280.0 L 428.0 279.0 L 429.0 277.0 L 427.0 275.0 L 423.0 259.0 L 421.0 258.0 L 422.0 256.0 L 420.0 254.0 L 419.0 245.0 L 417.0 244.0 L 409.0 215.0 L 398.0 216.0 L 397.0 218.0 L 392.0 219.0 L 393.0 231.0 L 395.0 233.0 L 399.0 249.0 L 401.0 250.0 L 400.0 252.0 L 402.0 254.0 L 406.0 270.0 L 408.0 271.0 L 407.0 273.0 L 412.0 284.0 L 417.0 304.0 L 419.0 305.0 L 420.0 314.0 L 422.0 315.0 L 423.0 322.0 L 425.0 324.0 L 424.0 326.0 L 426.0 328.0 L 427.0 335.0 L 429.0 336.0 L 443.0 382.0 L 405.0 392.0 L 387.0 364.0 L 379.0 348.0 L 376.0 346.0 L 375.0 341.0 L 372.0 339.0 L 368.0 330.0 L 360.0 320.0 L 361.0 319.0 L 357.0 314.0 L 353.0 314.0 L 349.0 317.0 L 345.0 317.0 L 343.0 320.0 L 337.0 321.0 L 329.0 327.0 L 323.0 328.0 L 300.0 340.0 L 301.0 348.0 L 303.0 349.0 L 311.0 366.0 L 313.0 367.0 L 314.0 372.0 L 316.0 373.0 L 314.0 378.0 L 296.0 386.0 L 290.0 391.0 L 283.0 393.0 L 277.0 398.0 L 266.0 403.0 L 264.0 406.0 L 255.0 410.0 L 251.0 415.0 L 245.0 417.0 L 221.0 434.0 L 183.0 468.0 L 181.0 468.0 L 181.0 470.0 L 161.0 488.0 L 160.0 491.0 L 158.0 491.0 L 158.0 493.0 Z M 671.0 340.0 L 674.0 337.0 L 683.0 338.0 L 685.0 341.0 L 701.0 348.0 L 701.0 351.0 L 696.0 357.0 L 694.0 364.0 L 685.0 378.0 L 685.0 386.0 L 721.0 403.0 L 729.0 409.0 L 734.0 410.0 L 736.0 413.0 L 761.0 427.0 L 777.0 440.0 L 785.0 444.0 L 826.0 478.0 L 858.0 510.0 L 862.0 516.0 L 862.0 520.0 L 844.0 535.0 L 839.0 535.0 L 826.0 522.0 L 827.0 521.0 L 815.0 511.0 L 815.0 509.0 L 813.0 509.0 L 787.0 484.0 L 776.0 477.0 L 758.0 461.0 L 738.0 449.0 L 736.0 446.0 L 727.0 442.0 L 717.0 434.0 L 710.0 432.0 L 704.0 427.0 L 697.0 425.0 L 696.0 423.0 L 676.0 413.0 L 670.0 412.0 L 669.0 410.0 L 646.0 400.0 L 639.0 399.0 L 638.0 394.0 Z M 354.0 341.0 L 355.0 345.0 L 358.0 347.0 L 362.0 356.0 L 367.0 362.0 L 366.0 363.0 L 385.0 393.0 L 385.0 399.0 L 358.0 409.0 L 320.0 427.0 L 276.0 454.0 L 274.0 457.0 L 252.0 471.0 L 230.0 491.0 L 228.0 491.0 L 207.0 512.0 L 205.0 512.0 L 183.0 536.0 L 180.0 536.0 L 161.0 520.0 L 161.0 516.0 L 168.0 509.0 L 168.0 507.0 L 194.0 481.0 L 235.0 446.0 L 268.0 423.0 L 287.0 413.0 L 289.0 410.0 L 294.0 409.0 L 302.0 403.0 L 339.0 386.0 L 339.0 379.0 L 325.0 356.0 L 324.0 349.0 L 333.0 342.0 L 346.0 337.0 L 350.0 337.0 Z" fill="currentColor" fill-rule="evenodd"/>
</svg>
